<svg width="267" height="267" viewBox="0 0 267 267" fill="none" xmlns="http://www.w3.org/2000/svg">
<path d="M77.7599 88.1074H56.4438V60H18.8135V88.1074H3.19189V115.604H18.8135V172.659C18.5826 196.413 34.1272 208.328 60.6762 207.106C69.7567 206.647 76.2978 204.814 79.9146 203.745L74.22 176.783C72.604 177.165 68.8333 177.929 65.986 177.929C59.9067 177.929 56.4438 175.485 56.4438 168.534V115.604H77.7599V88.1074Z" fill="black"/>
<path d="M86.1247 205.425H123.755V135.997C123.755 124.387 130.604 116.979 140.454 116.979C150.227 116.979 156.691 123.776 156.691 134.622V205.425H192.859V135.386C192.859 124.158 199.093 116.979 209.481 116.979C219.024 116.979 225.795 123.318 225.795 135.004V205.425H263.426V126.45C263.426 101.626 248.035 86.5799 225.718 86.5799C208.25 86.5799 194.475 95.6689 190.089 109.646H188.858C185.703 95.5925 173.005 86.5799 156.614 86.5799C140.454 86.5799 128.141 95.3634 123.216 109.646H121.908V88.1074H86.1247V205.425Z" fill="black"/>
</svg>
